<svg width="27" height="27" viewBox="0 0 27 27" fill="none" xmlns="http://www.w3.org/2000/svg">
<path d="M25.0222 11.5812L14.9605 1.51956C13.9948 0.553799 12.429 0.553795 11.4632 1.51956L1.40154 11.5812C0.43578 12.547 0.435776 14.1128 1.40154 15.0786L11.4632 25.1402C12.429 26.106 13.9948 26.106 14.9605 25.1402L25.0222 15.0786C25.988 14.1128 25.988 12.547 25.0222 11.5812Z" fill="#C4C4C4"/>
<path d="M25.0222 11.5812L14.9605 1.51956C13.9948 0.553799 12.429 0.553795 11.4632 1.51956L1.40154 11.5812C0.43578 12.547 0.435776 14.1128 1.40154 15.0786L11.4632 25.1402C12.429 26.106 13.9948 26.106 14.9605 25.1402L25.0222 15.0786C25.988 14.1128 25.988 12.547 25.0222 11.5812Z" fill="#00FFFF"/>
<path d="M25.0222 11.5812L14.9605 1.51956C13.9948 0.553799 12.429 0.553795 11.4632 1.51956L1.40154 11.5812C0.43578 12.547 0.435776 14.1128 1.40154 15.0786L11.4632 25.1402C12.429 26.106 13.9948 26.106 14.9605 25.1402L25.0222 15.0786C25.988 14.1128 25.988 12.547 25.0222 11.5812Z" fill="url(#paint0_linear_129_66)" fill-opacity="0.2"/>
<path d="M25.0222 11.5812L14.9605 1.51956C13.9948 0.553799 12.429 0.553795 11.4632 1.51956L1.40154 11.5812C0.43578 12.547 0.435776 14.1128 1.40154 15.0786L11.4632 25.1402C12.429 26.106 13.9948 26.106 14.9605 25.1402L25.0222 15.0786C25.988 14.1128 25.988 12.547 25.0222 11.5812Z" stroke="url(#paint1_linear_129_66)" stroke-width="0.989195"/>
<defs>
<linearGradient id="paint0_linear_129_66" x1="13.2119" y1="0.47036" x2="13.2119" y2="26.1894" gradientUnits="userSpaceOnUse">
<stop stop-opacity="0"/>
<stop offset="1"/>
</linearGradient>
<linearGradient id="paint1_linear_129_66" x1="13.2119" y1="0.47036" x2="13.2119" y2="26.1894" gradientUnits="userSpaceOnUse">
<stop offset="0.100709" stop-color="#CCCACA"/>
<stop offset="0.723566" stop-color="#333333"/>
</linearGradient>
</defs>
</svg>
