<svg width="823" height="825" viewBox="0 0 823 825" fill="none" xmlns="http://www.w3.org/2000/svg">
<path d="M413.389 409.655L519.297 15.2172C555.375 23.3916 589.987 41.0735 615.844 56.0024C641.702 70.9313 673.211 91.9952 701.164 120.214L413.389 409.655Z" fill="#9D9D9D"/>
<path d="M414.774 411.116L703.712 122.476C730.87 147.595 752.003 180.213 766.932 206.071C781.861 231.928 798.617 265.925 808.716 304.34L414.774 411.116Z" fill="#9D9D9D"/>
<path d="M413.768 417.013L519.801 811.418C555.877 803.232 590.483 785.539 616.336 770.602C642.188 755.665 673.691 734.591 701.635 706.363L413.768 417.013Z" fill="#9D9D9D"/>
<path d="M414.814 415.081L703.843 703.629C730.993 678.502 752.116 645.877 767.036 620.014C781.957 594.152 798.702 560.15 808.789 521.732L414.814 415.081Z" fill="#9D9D9D"/>
<path d="M415.279 413.125L809.86 518.5C820.809 483.165 822.789 444.349 822.78 414.491C822.77 384.634 820.271 346.814 809.797 308.5L415.279 413.125Z" fill="#9D9D9D"/>
<path d="M411.339 416.956L517.025 811.454C481.699 822.43 442.884 824.441 413.027 824.455C383.169 824.47 345.348 822 307.025 811.557L411.339 416.956Z" fill="#9D9D9D"/>
<path d="M409.474 415.803L303.752 810.291C267.67 802.134 233.051 784.469 207.186 769.552C181.321 754.635 149.802 733.586 121.835 705.381L409.474 415.803Z" fill="#9D9D9D"/>
<path d="M408.094 414.344L119.292 703.12C92.123 678.015 70.9743 645.406 56.0332 619.555C41.092 593.705 24.32 559.716 14.2031 521.306L408.094 414.344Z" fill="#9D9D9D"/>
<path d="M409.087 408.445L302.868 14.091C266.796 22.2939 232.199 40.0031 206.353 54.9524C180.507 69.9017 149.015 90.9905 121.084 119.231L409.087 408.445Z" fill="#9D9D9D"/>
<path d="M408.052 410.379L118.886 121.967C91.7489 147.107 70.6413 179.742 55.7328 205.612C40.8243 231.481 24.0952 265.491 14.0268 303.914L408.052 410.379Z" fill="#9D9D9D"/>
<path d="M407.583 412.334L12.9525 307.146C2.02059 342.486 0.0585456 381.303 0.082121 411.161C0.105696 441.019 2.62277 478.837 13.1147 517.146L407.583 412.334Z" fill="#9D9D9D"/>
<path d="M411.523 407.5L306.023 12.9525C341.355 1.99269 380.17 0 410.028 0C439.886 0 477.706 2.48721 516.023 12.9488L411.523 407.5Z" fill="#9D9D9D"/>
</svg>
