<svg width="26" height="22" viewBox="0 0 26 22" fill="none" xmlns="http://www.w3.org/2000/svg">
<path d="M26 8.24996L14.2222 0.916626H2.73682V19.25H23.554H26V8.24996Z" fill="white"/>
<path d="M22.75 21.7708C23.612 21.7708 24.4386 21.5415 25.0481 21.1332C25.6576 20.7249 26 20.1711 26 19.5938V6.53125L16.25 0H3.25C2.38805 0 1.5614 0.22937 0.951903 0.637653C0.34241 1.04594 0 1.59969 0 2.17708V19.5938C0 20.1711 0 21.7708 0 21.7708C0 21.7708 2.38805 21.7708 3.25 21.7708H22.75Z" fill="url(#paint0_linear_516_334)"/>
<path d="M18.75 11.4584L12.9435 5.95837L12.9435 9.25837L6.75 9.25837L6.75 13.6584L12.9435 13.6584L12.9435 16.9584L18.75 11.4584Z" fill="white"/>
<defs>
<linearGradient id="paint0_linear_516_334" x1="13" y1="0" x2="13" y2="21.7708" gradientUnits="userSpaceOnUse">
<stop stop-color="#979797"/>
<stop offset="1" stop-color="#666666"/>
</linearGradient>
</defs>
</svg>
