<svg width="24" height="23" viewBox="0 0 24 23" fill="none" xmlns="http://www.w3.org/2000/svg">
<path d="M5.15789 5H22V20H2L5.15789 5Z" fill="#D9D9D9"/>
<path d="M20.7998 3.90039C21.4893 3.90039 22.1511 4.1736 22.6387 4.66113C23.1263 5.14873 23.4004 5.81044 23.4004 6.5V19.5C23.4004 20.1896 23.1263 20.8513 22.6387 21.3389C22.1511 21.8264 21.4893 22.0996 20.7998 22.0996H2.59961C1.91033 22.0995 1.24919 21.8262 0.761719 21.3389C0.274124 20.8513 0 20.1896 0 19.5V6.5C1.26283e-07 5.81044 0.274124 5.14873 0.761719 4.66113C1.24919 4.17381 1.91033 3.90049 2.59961 3.90039H20.7998ZM10.4004 18.25L7.15039 14.3496L2.59961 20.2002H20.7998L14.9502 12.4004L10.4004 18.25ZM18.0996 5.81445V8.26758H15.75V9.55859H18.0996V12H19.3965V9.55859H21.7578V8.26758H19.3965V5.81445H18.0996ZM19.5 0C20.1896 0 20.8513 0.274124 21.3389 0.761719C21.8262 1.24919 22.0995 1.91033 22.0996 2.59961H1.2998C1.29991 1.91023 1.57408 1.24921 2.06152 0.761719C2.54912 0.274124 3.21083 0 3.90039 0H19.5Z" fill="url(#paint0_linear_544_165)"/>
<defs>
<linearGradient id="paint0_linear_544_165" x1="11.7002" y1="0" x2="11.7002" y2="22.0996" gradientUnits="userSpaceOnUse">
<stop stop-color="#979797"/>
<stop offset="1" stop-color="#666666"/>
</linearGradient>
</defs>
</svg>
