<svg width="24" height="23" viewBox="0 0 24 23" fill="none" xmlns="http://www.w3.org/2000/svg">
<path d="M2.6 3.9C1.91044 3.9 1.24912 4.17393 0.761522 4.66152C0.273928 5.14912 0 5.81044 0 6.5V19.5C0 20.1896 0.273928 20.8509 0.761522 21.3385C1.24912 21.8261 1.91044 22.1 2.6 22.1H20.8C21.4896 22.1 22.1509 21.8261 22.6385 21.3385C23.1261 20.8509 23.4 20.1896 23.4 19.5V6.5C23.4 5.81044 23.1261 5.14912 22.6385 4.66152C22.1509 4.17393 21.4896 3.9 20.8 3.9H2.6ZM2.6 18.2L7.15 12.35L10.4 16.25L14.95 10.4L20.8 18.2H2.6ZM19.5 0C20.1896 0 20.8509 0.273928 21.3385 0.761522C21.8261 1.24912 22.1 1.91044 22.1 2.6H1.3C1.3 1.91044 1.57393 1.24912 2.06152 0.761522C2.54912 0.273928 3.21044 0 3.9 0H19.5Z" fill="url(#paint0_linear_542_154)"/>
<defs>
<linearGradient id="paint0_linear_542_154" x1="11.7" y1="0" x2="11.7" y2="22.1" gradientUnits="userSpaceOnUse">
<stop stop-color="#979797"/>
<stop offset="1" stop-color="#666666"/>
</linearGradient>
</defs>
</svg>
