<svg width="40" height="40" viewBox="0 0 40 40" fill="none" xmlns="http://www.w3.org/2000/svg">
<path fill-rule="evenodd" clip-rule="evenodd" d="M23.1296 40.0001V30.9019H16.8704V40.0001H9.56789C9.01453 40.0001 8.48384 39.7605 8.09256 39.3339C7.70128 38.9074 7.48147 38.3288 7.48147 37.7256V24.0782H2.08598C1.67339 24.0781 1.27009 23.9446 0.927057 23.6947C0.584028 23.4448 0.316675 23.0896 0.158795 22.674C0.000915825 22.2584 -0.0404016 21.8012 0.0400666 21.36C0.120535 20.9189 0.319176 20.5136 0.610877 20.1955L18.5249 5.88349C18.9162 5.45708 19.4468 5.21753 20 5.21753C20.5532 5.21753 21.0838 5.45708 21.4751 5.88349L39.3891 20.1955C39.6808 20.5136 39.8795 20.9189 39.9599 21.36C40.0404 21.8012 39.9991 22.2584 39.8412 22.674C39.6833 23.0896 39.416 23.4448 39.0729 23.6947C38.7299 23.9446 38.3266 24.0781 37.914 24.0782H32.5185V37.7256C32.5185 38.3288 32.2987 38.9074 31.9074 39.3339C31.5162 39.7605 30.9855 40.0001 30.4321 40.0001H23.1296Z" fill="url(#paint0_linear_546_175)"/>
<defs>
<linearGradient id="paint0_linear_546_175" x1="20" y1="5.21753" x2="20" y2="40.0001" gradientUnits="userSpaceOnUse">
<stop stop-color="#979797"/>
<stop offset="1" stop-color="#666666"/>
</linearGradient>
</defs>
</svg>
