<svg width="24" height="20" viewBox="0 0 24 20" fill="none" xmlns="http://www.w3.org/2000/svg">
<rect x="1" y="3" width="21" height="17" fill="#EBEBEB"/>
<path d="M22.0833 0H1.25C0.918479 0 0.600537 0.131696 0.366117 0.366116C0.131696 0.600537 0 0.918479 0 1.25V18.75C0 19.0815 0.131696 19.3995 0.366117 19.6339C0.600537 19.8683 0.918479 20 1.25 20H22.0833C22.4149 20 22.7328 19.8683 22.9672 19.6339C23.2016 19.3995 23.3333 19.0815 23.3333 18.75V1.25C23.3333 0.918479 23.2016 0.600537 22.9672 0.366116C22.7328 0.131696 22.4149 0 22.0833 0ZM15.6052 3.34375C16.117 3.29686 16.6308 3.40883 17.0766 3.66442C17.5225 3.92001 17.8788 4.3068 18.0969 4.77213C18.3151 5.23745 18.3845 5.75871 18.2958 6.26491C18.2071 6.77112 17.9645 7.23769 17.6011 7.60109C17.2377 7.96449 16.7711 8.20706 16.2649 8.29578C15.7587 8.38451 15.2375 8.31507 14.7721 8.09692C14.3068 7.87877 13.92 7.52251 13.6644 7.07665C13.4088 6.63079 13.2969 6.11699 13.3438 5.60521C13.3971 5.02342 13.6524 4.47867 14.0656 4.06555C14.4787 3.65244 15.0234 3.39706 15.6052 3.34375ZM2.29167 18.3333C2.12591 18.3333 1.96694 18.2675 1.84972 18.1503C1.73251 18.0331 1.66667 17.8741 1.66667 17.7083V13.1443L8.36667 7.1875L13.4161 12.2266L7.31094 18.3333H2.29167ZM21.6667 17.7083C21.6667 17.8741 21.6008 18.0331 21.4836 18.1503C21.3664 18.2675 21.2074 18.3333 21.0417 18.3333H9.66823L17.4563 10.5453L21.6667 14.0542V17.7083Z" fill="url(#paint0_linear_66_90)"/>
<defs>
<linearGradient id="paint0_linear_66_90" x1="11.6667" y1="0" x2="11.6667" y2="20" gradientUnits="userSpaceOnUse">
<stop stop-color="#9E9E9E"/>
<stop offset="1" stop-color="#777474"/>
</linearGradient>
</defs>
</svg>
