<svg width="26" height="26" viewBox="0 0 26 26" fill="none" xmlns="http://www.w3.org/2000/svg">
<path d="M5.15789 5H22V20H2L5.15789 5Z" fill="#D9D9D9"/>
<path d="M22 2C23.6569 2 25 3.34315 25 5V19C25 20.6569 23.6569 22 22 22H0V5C0 3.34315 1.34315 2 3 2H22ZM11.417 10.4072C10.8647 10.4072 10.417 10.8549 10.417 11.4072V17.5557C10.417 18.1079 10.8647 18.5557 11.417 18.5557H12.542C13.094 18.5554 13.542 18.1078 13.542 17.5557V11.4072C13.542 10.8551 13.0941 10.4075 12.542 10.4072H11.417ZM11.9795 5.22266C11.1166 5.22266 10.417 5.88587 10.417 6.7041C10.4172 7.52219 11.1167 8.18555 11.9795 8.18555C12.8421 8.18534 13.5418 7.52206 13.542 6.7041C13.542 5.886 12.8422 5.22286 11.9795 5.22266Z" fill="url(#paint0_linear_590_1613)"/>
<defs>
<linearGradient id="paint0_linear_590_1613" x1="12.5" y1="2" x2="12.5" y2="22" gradientUnits="userSpaceOnUse">
<stop stop-color="#9E9E9E"/>
<stop offset="1" stop-color="#777474"/>
</linearGradient>
</defs>
</svg>
