<svg width="27" height="26" viewBox="0 0 27 26" fill="none" xmlns="http://www.w3.org/2000/svg">
<path d="M24.6287 10.5465L15.971 1.88877C14.6198 0.537497 12.4289 0.537495 11.0776 1.88877L2.41995 10.5465C1.06867 11.8977 1.06867 14.0886 2.41995 15.4399L11.0776 24.0975C12.4289 25.4488 14.6198 25.4488 15.971 24.0975L24.6287 15.4399C25.98 14.0886 25.98 11.8977 24.6287 10.5465Z" fill="#A2A2A2"/>
<path d="M24.6287 10.5465L15.971 1.88877C14.6198 0.537497 12.4289 0.537495 11.0776 1.88877L2.41995 10.5465C1.06867 11.8977 1.06867 14.0886 2.41995 15.4399L11.0776 24.0975C12.4289 25.4488 14.6198 25.4488 15.971 24.0975L24.6287 15.4399C25.98 14.0886 25.98 11.8977 24.6287 10.5465Z" fill="#FF00FF"/>
<path d="M24.6287 10.5465L15.971 1.88877C14.6198 0.537497 12.4289 0.537495 11.0776 1.88877L2.41995 10.5465C1.06867 11.8977 1.06867 14.0886 2.41995 15.4399L11.0776 24.0975C12.4289 25.4488 14.6198 25.4488 15.971 24.0975L24.6287 15.4399C25.98 14.0886 25.98 11.8977 24.6287 10.5465Z" stroke="url(#paint0_linear_129_72)" stroke-width="0.988618"/>
<defs>
<linearGradient id="paint0_linear_129_72" x1="13.5243" y1="0.141129" x2="13.5243" y2="25.8452" gradientUnits="userSpaceOnUse">
<stop offset="0.100709" stop-color="#CCCACA"/>
<stop offset="0.723566" stop-color="#333333"/>
</linearGradient>
</defs>
</svg>
