<svg width="25" height="21" viewBox="0 0 25 21" fill="none" xmlns="http://www.w3.org/2000/svg">
<path d="M0 3C0 1.34315 1.34315 0 3 0H22C23.6569 0 25 1.34315 25 3V18C25 19.6569 23.6569 21 22 21H3.97727H0V3Z" fill="url(#paint0_linear_747_1736)"/>
<path d="M12.8564 10.1573H15V10.8528H12.8564V13H12.1332V10.8528H10V10.1573H12.1332V8H12.8564V10.1573Z" fill="white" stroke="white" stroke-width="0.5"/>
<rect x="3" y="3" width="7" height="5" fill="#D9D9D9"/>
<rect x="3" y="13" width="7" height="5" fill="#D9D9D9"/>
<rect x="15" y="3" width="7" height="5" fill="#D9D9D9"/>
<rect x="15" y="13" width="7" height="5" fill="#D9D9D9"/>
<defs>
<linearGradient id="paint0_linear_747_1736" x1="12.5" y1="0" x2="12.5" y2="21" gradientUnits="userSpaceOnUse">
<stop stop-color="#9E9E9E"/>
<stop offset="1" stop-color="#777474"/>
</linearGradient>
</defs>
</svg>
