<svg width="73" height="30" viewBox="0 0 73 30" fill="none" xmlns="http://www.w3.org/2000/svg">
<path d="M0 15C0 6.71573 6.71573 0 15 0H58C66.2843 0 73 6.71573 73 15V15C73 23.2843 66.2843 30 58 30H15C6.71573 30 0 23.2843 0 15V15Z" fill="url(#paint0_linear_876_69)"/>
<path d="M20.1807 20.5H18.8545L13.3926 12.1123H13.3379C13.4108 13.0967 13.4473 13.999 13.4473 14.8193V20.5H12.374V10.5059H13.6865L19.1348 18.8594H19.1895C19.1803 18.7363 19.1598 18.3421 19.1279 17.6768C19.096 17.0068 19.0846 16.5283 19.0938 16.2412V10.5059H20.1807V20.5ZM25.9229 20.6367C24.8154 20.6367 23.9404 20.2995 23.2979 19.625C22.6598 18.9505 22.3408 18.014 22.3408 16.8154C22.3408 15.6077 22.637 14.6484 23.2295 13.9375C23.8265 13.2266 24.6263 12.8711 25.6289 12.8711C26.5677 12.8711 27.3105 13.181 27.8574 13.8008C28.4043 14.416 28.6777 15.2295 28.6777 16.2412V16.959H23.5166C23.5394 17.8385 23.7604 18.5062 24.1797 18.9619C24.6035 19.4176 25.1982 19.6455 25.9639 19.6455C26.7705 19.6455 27.568 19.4769 28.3564 19.1396V20.1514C27.9554 20.3245 27.5749 20.4476 27.2148 20.5205C26.8594 20.598 26.4287 20.6367 25.9229 20.6367ZM25.6152 13.8213C25.0137 13.8213 24.5329 14.0173 24.1729 14.4092C23.8174 14.8011 23.6077 15.3434 23.5439 16.0361H27.4609C27.4609 15.3206 27.3014 14.7738 26.9824 14.3955C26.6634 14.0127 26.2077 13.8213 25.6152 13.8213ZM32.4238 16.665L29.8193 13.0078H31.1113L33.0869 15.8789L35.0557 13.0078H36.334L33.7295 16.665L36.4707 20.5H35.1855L33.0869 17.4648L30.9678 20.5H29.6826L32.4238 16.665ZM40.3809 19.7002C40.5814 19.7002 40.7751 19.6865 40.9619 19.6592C41.1488 19.6273 41.2969 19.5954 41.4062 19.5635V20.4316C41.2832 20.4909 41.1009 20.5387 40.8594 20.5752C40.6224 20.6162 40.4082 20.6367 40.2168 20.6367C38.7676 20.6367 38.043 19.8734 38.043 18.3467V13.8896H36.9697V13.3428L38.043 12.8711L38.5215 11.2715H39.1777V13.0078H41.3516V13.8896H39.1777V18.2988C39.1777 18.75 39.2848 19.0964 39.499 19.3379C39.7132 19.5794 40.0072 19.7002 40.3809 19.7002ZM46.0547 17.8135L51.4072 15.585L46.0547 13.0352V12.0166L52.624 15.291V15.9609L46.0547 18.8457V17.8135ZM54.0664 17.8135L59.4189 15.585L54.0664 13.0352V12.0166L60.6357 15.291V15.9609L54.0664 18.8457V17.8135Z" fill="white"/>
<defs>
<linearGradient id="paint0_linear_876_69" x1="36.5" y1="0" x2="36.5" y2="30" gradientUnits="userSpaceOnUse">
<stop stop-color="#979797"/>
<stop offset="1" stop-color="#666666"/>
</linearGradient>
</defs>
</svg>
