<svg width="27" height="24" viewBox="0 0 27 24" fill="none" xmlns="http://www.w3.org/2000/svg">
<path d="M11.4231 16.6153C11.2178 16.6153 11.0171 16.5543 10.8464 16.4402C10.6757 16.3261 10.5427 16.1639 10.4641 15.9742C10.3856 15.7845 10.365 15.5758 10.405 15.3744C10.4451 15.173 10.5439 14.9881 10.689 14.8428L20.9399 4.59191C20.4094 4.30386 19.8152 4.15325 19.2115 4.15381H3.63462C2.67097 4.15484 1.74709 4.5381 1.06569 5.2195C0.384294 5.9009 0.00103082 6.82478 0 7.78843V19.7728C0.00103082 20.7365 0.384294 21.6604 1.06569 22.3418C1.74709 23.0232 2.67097 23.4064 3.63462 23.4074H19.2115C20.1752 23.4064 21.0991 23.0232 21.7805 22.3418C22.4619 21.6604 22.8451 20.7365 22.8462 19.7728V7.78843C22.8467 7.18475 22.6961 6.59055 22.4081 6.06004L12.1571 16.3109C12.0609 16.4076 11.9465 16.4843 11.8205 16.5365C11.6946 16.5888 11.5595 16.6156 11.4231 16.6153Z" fill="url(#paint0_linear_539_136)"/>
<path d="M25.9616 0H18.6923C18.4169 0 18.1528 0.109409 17.958 0.304158C17.7633 0.498908 17.6539 0.763044 17.6539 1.03846C17.6539 1.31388 17.7633 1.57802 17.958 1.77276C18.1528 1.96751 18.4169 2.07692 18.6923 2.07692H23.4543L20.94 4.59195C21.5609 4.92922 22.0708 5.43915 22.4081 6.06007L24.9231 3.5457V8.30769C24.9231 8.58311 25.0325 8.84725 25.2273 9.042C25.422 9.23674 25.6861 9.34615 25.9616 9.34615C26.237 9.34615 26.5011 9.23674 26.6959 9.042C26.8906 8.84725 27 8.58311 27 8.30769V1.03846C27 0.763044 26.8906 0.498908 26.6959 0.304158C26.5011 0.109409 26.237 0 25.9616 0Z" fill="#959595"/>
<defs>
<linearGradient id="paint0_linear_539_136" x1="11.4231" y1="4.15381" x2="11.4231" y2="23.4074" gradientUnits="userSpaceOnUse">
<stop stop-color="#979797"/>
<stop offset="1" stop-color="#666666"/>
</linearGradient>
</defs>
</svg>
