<svg width="25" height="28" viewBox="0 0 25 28" fill="none" xmlns="http://www.w3.org/2000/svg">
<path d="M5.31579 3H19.6842L23 15H2L5.31579 3Z" fill="#D9D9D9"/>
<path d="M12.5 25C10.7917 25 9.17708 24.6717 7.65625 24.015C6.13542 23.3583 4.8075 22.4625 3.6725 21.3275C2.5375 20.1925 1.64167 18.8646 0.985 17.3438C0.328333 15.8229 0 14.2083 0 12.5C0 10.7708 0.33875 9.14583 1.01625 7.625C1.69375 6.10417 2.61042 4.78125 3.76625 3.65625C4.92208 2.53125 6.27083 1.64083 7.8125 0.985C9.35417 0.329167 11 0.000833333 12.75 0C14.4167 0 15.9896 0.286667 17.4688 0.86C18.9479 1.43333 20.245 2.225 21.36 3.235C22.475 4.245 23.3604 5.44292 24.0162 6.82875C24.6721 8.21458 25 9.70917 25 11.3125C25 13.7083 24.2708 15.5471 22.8125 16.8288C21.3542 18.1104 19.5833 18.7508 17.5 18.75H15.1875C15 18.75 14.87 18.8021 14.7975 18.9062C14.725 19.0104 14.6883 19.125 14.6875 19.25C14.6875 19.5 14.8438 19.8596 15.1562 20.3288C15.4688 20.7979 15.625 21.3342 15.625 21.9375C15.625 22.9792 15.3387 23.75 14.7662 24.25C14.1937 24.75 13.4383 25 12.5 25ZM5.625 13.75C6.16667 13.75 6.61458 13.5729 6.96875 13.2188C7.32292 12.8646 7.5 12.4167 7.5 11.875C7.5 11.3333 7.32292 10.8854 6.96875 10.5312C6.61458 10.1771 6.16667 10 5.625 10C5.08333 10 4.63542 10.1771 4.28125 10.5312C3.92708 10.8854 3.75 11.3333 3.75 11.875C3.75 12.4167 3.92708 12.8646 4.28125 13.2188C4.63542 13.5729 5.08333 13.75 5.625 13.75ZM9.375 8.75C9.91667 8.75 10.3646 8.57292 10.7188 8.21875C11.0729 7.86458 11.25 7.41667 11.25 6.875C11.25 6.33333 11.0729 5.88542 10.7188 5.53125C10.3646 5.17708 9.91667 5 9.375 5C8.83333 5 8.38542 5.17708 8.03125 5.53125C7.67708 5.88542 7.5 6.33333 7.5 6.875C7.5 7.41667 7.67708 7.86458 8.03125 8.21875C8.38542 8.57292 8.83333 8.75 9.375 8.75ZM15.625 8.75C16.1667 8.75 16.6146 8.57292 16.9688 8.21875C17.3229 7.86458 17.5 7.41667 17.5 6.875C17.5 6.33333 17.3229 5.88542 16.9688 5.53125C16.6146 5.17708 16.1667 5 15.625 5C15.0833 5 14.6354 5.17708 14.2812 5.53125C13.9271 5.88542 13.75 6.33333 13.75 6.875C13.75 7.41667 13.9271 7.86458 14.2812 8.21875C14.6354 8.57292 15.0833 8.75 15.625 8.75ZM19.375 13.75C19.9167 13.75 20.3646 13.5729 20.7188 13.2188C21.0729 12.8646 21.25 12.4167 21.25 11.875C21.25 11.3333 21.0729 10.8854 20.7188 10.5312C20.3646 10.1771 19.9167 10 19.375 10C18.8333 10 18.3854 10.1771 18.0312 10.5312C17.6771 10.8854 17.5 11.3333 17.5 11.875C17.5 12.4167 17.6771 12.8646 18.0312 13.2188C18.3854 13.5729 18.8333 13.75 19.375 13.75Z" fill="url(#paint0_linear_173_591)"/>
<path d="M13.1465 12.453H15.5078V13.2439H13.1465V15.6855H12.3498V13.2439H10V12.453H12.3498V10H13.1465V12.453Z" fill="white" stroke="white" stroke-width="0.5"/>
<defs>
<linearGradient id="paint0_linear_173_591" x1="12.5" y1="0" x2="12.5" y2="25" gradientUnits="userSpaceOnUse">
<stop stop-color="#979797"/>
<stop offset="1" stop-color="#666666"/>
</linearGradient>
</defs>
</svg>
