<svg width="29" height="31" viewBox="0 0 29 31" fill="none" xmlns="http://www.w3.org/2000/svg">
<path d="M28.3829 15.7106C28.3829 23.6439 22.1748 30.0456 14.5524 30.0456C6.92995 30.0456 0.721817 23.6439 0.721817 15.7106C0.721817 7.77741 6.92995 1.37569 14.5524 1.37569C22.1748 1.37569 28.3829 7.77741 28.3829 15.7106Z" fill="#C4C4C4"/>
<path d="M28.3829 15.7106C28.3829 23.6439 22.1748 30.0456 14.5524 30.0456C6.92995 30.0456 0.721817 23.6439 0.721817 15.7106C0.721817 7.77741 6.92995 1.37569 14.5524 1.37569C22.1748 1.37569 28.3829 7.77741 28.3829 15.7106Z" fill="#FF0000"/>
<path d="M28.3829 15.7106C28.3829 23.6439 22.1748 30.0456 14.5524 30.0456C6.92995 30.0456 0.721817 23.6439 0.721817 15.7106C0.721817 7.77741 6.92995 1.37569 14.5524 1.37569C22.1748 1.37569 28.3829 7.77741 28.3829 15.7106Z" stroke="url(#paint0_linear_129_57)" stroke-width="0.988618"/>
<defs>
<linearGradient id="paint0_linear_129_57" x1="14.5524" y1="0.881382" x2="14.5524" y2="30.5399" gradientUnits="userSpaceOnUse">
<stop offset="0.100709" stop-color="#CCCACA"/>
<stop offset="0.723566" stop-color="#333333"/>
</linearGradient>
</defs>
</svg>
