<svg width="27" height="27" viewBox="0 0 27 27" fill="none" xmlns="http://www.w3.org/2000/svg">
<path d="M24.8674 11.4757L14.8057 1.41401C13.8399 0.448254 12.2741 0.44825 11.3084 1.41401L1.24668 11.4757C0.280918 12.4414 0.280915 14.0073 1.24668 14.973L11.3084 25.0347C12.2741 26.0005 13.8399 26.0005 14.8057 25.0347L24.8674 14.973C25.8331 14.0073 25.8331 12.4415 24.8674 11.4757Z" fill="#C4C4C4"/>
<path d="M24.8674 11.4757L14.8057 1.41401C13.8399 0.448254 12.2741 0.44825 11.3084 1.41401L1.24668 11.4757C0.280918 12.4414 0.280915 14.0073 1.24668 14.973L11.3084 25.0347C12.2741 26.0005 13.8399 26.0005 14.8057 25.0347L24.8674 14.973C25.8331 14.0073 25.8331 12.4415 24.8674 11.4757Z" fill="#FFFF00"/>
<path d="M24.8674 11.4757L14.8057 1.41401C13.8399 0.448254 12.2741 0.44825 11.3084 1.41401L1.24668 11.4757C0.280918 12.4414 0.280915 14.0073 1.24668 14.973L11.3084 25.0347C12.2741 26.0005 13.8399 26.0005 14.8057 25.0347L24.8674 14.973C25.8331 14.0073 25.8331 12.4415 24.8674 11.4757Z" fill="url(#paint0_linear_129_60)" fill-opacity="0.2"/>
<path d="M24.8674 11.4757L14.8057 1.41401C13.8399 0.448254 12.2741 0.44825 11.3084 1.41401L1.24668 11.4757C0.280918 12.4414 0.280915 14.0073 1.24668 14.973L11.3084 25.0347C12.2741 26.0005 13.8399 26.0005 14.8057 25.0347L24.8674 14.973C25.8331 14.0073 25.8331 12.4415 24.8674 11.4757Z" stroke="url(#paint1_linear_129_60)" stroke-width="0.989195"/>
<defs>
<linearGradient id="paint0_linear_129_60" x1="13.057" y1="0.364815" x2="13.057" y2="26.0839" gradientUnits="userSpaceOnUse">
<stop stop-opacity="0"/>
<stop offset="1"/>
</linearGradient>
<linearGradient id="paint1_linear_129_60" x1="13.057" y1="0.364815" x2="13.057" y2="26.0839" gradientUnits="userSpaceOnUse">
<stop offset="0.100709" stop-color="#CCCACA"/>
<stop offset="0.723566" stop-color="#333333"/>
</linearGradient>
</defs>
</svg>
